# Blender 4.0.1
# www.blender.org
mtllib Blockers.mtl
o Cube
v -0.583200 0.000000 0.944784
v -0.116640 1.049760 0.897545
v -0.583200 0.000000 -0.944784
v -0.116640 1.049760 -0.944784
v 0.583200 0.000000 0.944784
v 0.116640 1.049760 0.897545
v 0.583200 0.000000 -0.944784
v 0.116640 1.049760 -0.944784
v -0.395858 0.349489 0.941386
v -0.502740 0.202762 0.945076
v -0.395858 0.349491 -0.945132
v -0.502740 0.202762 -0.945076
v 0.502740 0.202762 -0.945076
v 0.395858 0.349491 -0.945132
v 0.502740 0.202762 0.945076
v 0.395858 0.349489 0.941386
vn -0.0000 -0.0014 1.0000
vn -0.0000 0.0076 1.0000
vn -0.9295 0.3688 -0.0000
vn -0.8756 0.4830 -0.0000
vn -0.8751 0.4839 -0.0000
vn -0.0000 1.0000 -0.0000
vn -0.0000 -0.0011 -1.0000
vn -0.0000 -0.0014 -1.0000
vn 0.8748 0.4845 -0.0000
vn 0.9289 0.3704 -0.0000
vn 0.8730 0.4876 -0.0000
vn -0.8730 0.4876 -0.0000
vn -0.9289 0.3704 -0.0000
vn -0.8748 0.4845 -0.0000
vn 0.9295 0.3688 -0.0000
vn 0.8751 0.4839 -0.0000
vn 0.8756 0.4830 -0.0000
vn -0.0000 0.0005 -1.0000
vn -0.0000 -0.0001 -1.0000
vn -0.0000 0.0387 0.9993
vn -0.0000 0.0625 0.9980
vt 0.300815 0.010907
vt 0.268392 0.068804
vt 0.033486 0.068804
vt 0.001064 0.010907
vt 0.799828 0.278068
vt 0.799920 0.344426
vt 0.200233 0.344426
vt 0.200326 0.278068
vt 0.204856 0.668004
vt 0.204856 0.608054
vt 0.789371 0.608054
vt 0.789371 0.668004
vt 0.722270 0.062343
vt 0.689345 0.004731
vt 0.989084 0.002120
vt 0.957167 0.060297
vt 0.799938 0.774293
vt 0.799828 0.993365
vt 0.215313 0.993365
vt 0.201404 0.774292
vt 0.798750 0.382822
vt 0.784840 0.601895
vt 0.200326 0.601895
vt 0.200215 0.382823
vt 0.799828 0.669538
vt 0.799920 0.735895
vt 0.200233 0.735895
vt 0.200326 0.669538
vt 0.811851 0.303426
vt 0.738296 0.097072
vt 0.941749 0.095299
vt 0.871799 0.302904
vt 0.252670 0.103710
vt 0.049208 0.103711
vt 0.180914 0.311165
vt 0.120964 0.311165
s 1
f 5/1/1 15/2/2 10/3/2 1/4/1
f 1/5/3 10/6/4 12/7/5 3/8/3
f 8/9/6 4/10/6 2/11/6 6/12/6
f 13/13/7 7/14/8 3/15/8 12/16/7
f 14/17/9 8/18/10 6/19/10 16/20/11
f 9/21/12 2/22/13 4/23/13 11/24/14
f 7/25/15 13/26/16 15/27/17 5/28/15
f 8/29/18 14/30/19 11/31/19 4/32/18
f 16/33/20 9/34/20 10/3/2 15/2/2
f 14/17/9 16/20/11 15/27/17 13/26/16
f 9/21/12 11/24/14 12/7/5 10/6/4
f 13/13/7 12/16/7 11/31/19 14/30/19
f 16/33/20 6/35/21 2/36/21 9/34/20
