# Blender 4.0.1
# www.blender.org
mtllib DamagedBlockers.mtl
o Cube.001
v -0.583200 0.000000 0.944784
v -0.116640 1.049760 0.897545
v -0.583200 0.000000 -0.944784
v -0.116640 0.637492 -0.862700
v 0.583200 0.000000 0.944784
v 0.116640 1.049760 0.897545
v 0.583200 0.000000 -0.944784
v 0.116640 0.637492 -0.862700
v -0.395858 0.349489 0.941386
v -0.502740 0.202762 0.945076
v -0.395858 0.349491 -0.945132
v -0.502740 0.202762 -0.945076
v 0.502740 0.202762 -0.945076
v 0.395858 0.349491 -0.945132
v 0.502740 0.202762 0.945076
v 0.395858 0.349489 0.941386
v 0.256249 0.699624 0.919466
v -0.256249 0.699624 0.919466
v -0.256249 0.489394 -0.885044
v 0.256249 0.489394 -0.885044
v -0.583200 0.000000 0.000000
v -0.116640 1.049760 0.202812
v 0.583200 0.000000 0.000000
v 0.116640 1.049760 0.202812
v 0.395858 0.349490 -0.001873
v 0.502740 0.202762 0.000000
v -0.395858 0.349490 -0.001873
v -0.502740 0.202762 0.000000
v -0.256249 0.699625 -0.012746
v 0.256249 0.699625 -0.012746
v -0.116640 0.682349 -0.318660
v 0.583200 0.000000 -0.472392
v 0.502740 0.202762 -0.472538
v -0.395858 0.349490 -0.473502
v -0.256249 0.489393 -0.418938
v -0.583200 0.000000 -0.472392
v 0.116640 0.652051 -0.318660
v 0.395858 0.349490 -0.473502
v -0.502740 0.202762 -0.472538
v 0.256249 0.489393 -0.418938
v -0.116640 0.653186 -0.609637
v 0.583200 0.000000 -0.708588
v 0.502740 0.202762 -0.708807
v -0.395858 0.349491 -0.709317
v -0.256249 0.489394 -0.651991
v -0.583200 0.000000 -0.708588
v 0.116640 0.607743 -0.609637
v 0.395858 0.349491 -0.709317
v -0.502740 0.202762 -0.708807
v 0.256249 0.489394 -0.651991
v -0.583200 0.000000 -0.236196
v 0.116640 0.808849 -0.088396
v 0.395858 0.349490 -0.237688
v -0.502740 0.202762 -0.236269
v 0.256249 0.578684 -0.245799
v -0.116640 0.876550 -0.088396
v 0.583200 0.000000 -0.236196
v 0.502740 0.202762 -0.236269
v -0.395858 0.349490 -0.237688
v -0.256249 0.578684 -0.245799
vn -0.0000 -0.0014 1.0000
vn -0.0000 0.0076 1.0000
vn -0.9295 0.3688 -0.0000
vn -0.8752 0.4838 -0.0000
vn -0.8751 0.4839 -0.0000
vn -0.0000 1.0000 -0.0000
vn -0.0000 -0.0011 -1.0000
vn -0.0000 -0.0014 -1.0000
vn 0.8485 0.4905 -0.1986
vn 0.9051 0.4188 -0.0741
vn 0.9289 0.3704 -0.0000
vn -0.7339 0.6791 -0.0136
vn -0.7650 0.6433 -0.0293
vn -0.7426 0.6693 -0.0216
vn -0.7230 0.6907 -0.0093
vn 0.9295 0.3688 -0.0000
vn 0.8752 0.4838 -0.0000
vn 0.8756 0.4830 -0.0000
vn -0.0000 0.3274 -0.9449
vn -0.0000 0.1157 -0.9933
vn -0.0000 0.0387 0.9993
vn 0.8666 0.4984 -0.0271
vn 0.8730 0.4877 -0.0000
vn -0.7599 0.6500 -0.0000
vn -0.7661 0.6428 -0.0000
vn -0.0000 0.0625 0.9980
vn -0.0000 0.1492 -0.9888
vn 0.8288 0.5563 -0.0610
vn 0.7450 0.6049 -0.2812
vn -0.8730 0.4877 -0.0000
vn -0.9289 0.3704 -0.0000
vn -0.8838 0.4460 -0.1413
vn -0.8666 0.4984 -0.0271
vn -0.8756 0.4830 -0.0000
vn -0.9125 0.4045 -0.0611
vn 0.4207 0.7392 -0.5260
vn 0.1386 0.7986 -0.5857
vn 0.1174 0.8093 -0.5755
vn 0.1283 0.9906 -0.0480
vn 0.1287 0.9905 -0.0489
vn 0.1676 0.9076 -0.3849
vn 0.4174 0.8348 -0.3591
vn 0.7014 0.7128 0.0002
vn 0.6944 0.7193 -0.0172
vn 0.7209 0.6826 -0.1200
vn 0.7599 0.6500 -0.0000
vn 0.7756 0.6307 -0.0267
vn -0.8288 0.5563 -0.0610
vn -0.7893 0.5538 -0.2652
vn -0.7603 0.6397 -0.1130
vn -0.7756 0.6307 -0.0267
vn -0.7865 0.5320 -0.3136
vn -0.7154 0.6218 -0.3186
vn 0.7661 0.6428 -0.0000
vn 0.7025 0.7114 0.0189
vn 0.8751 0.4839 -0.0000
vn 0.6950 0.7177 0.0439
vn 0.0969 0.9949 0.0276
vt 0.300815 0.010907
vt 0.268392 0.068804
vt 0.033486 0.068804
vt 0.001064 0.010907
vt 0.275263 0.278068
vt 0.275194 0.344426
vt 0.200233 0.344426
vt 0.200326 0.278068
vt 0.497114 0.668004
vt 0.497114 0.608054
vt 0.789371 0.608054
vt 0.789371 0.668004
vt 0.722270 0.062343
vt 0.689345 0.004731
vt 0.989084 0.002120
vt 0.957167 0.060297
vt 0.504121 0.883829
vt 0.507571 0.993365
vt 0.215313 0.993365
vt 0.208358 0.883828
vt 0.274211 0.492359
vt 0.273390 0.601895
vt 0.200326 0.601895
vt 0.200271 0.492359
vt 0.500077 0.669538
vt 0.500077 0.735895
vt 0.200233 0.735895
vt 0.200326 0.669538
vt 0.775074 0.200249
vt 0.738296 0.097072
vt 0.941749 0.095299
vt 0.906774 0.199102
vt 0.252670 0.103710
vt 0.049208 0.103711
vt 0.500671 0.774292
vt 0.201404 0.774292
vt 0.275032 0.382823
vt 0.200215 0.382823
vt 0.216792 0.207438
vt 0.180914 0.311165
vt 0.120964 0.311165
vt 0.085086 0.207438
vt 0.811851 0.303426
vt 0.871799 0.302904
vt 0.575488 0.774292
vt 0.578061 0.883829
vt 0.798750 0.382822
vt 0.791795 0.492359
vt 0.496033 0.492359
vt 0.499483 0.382823
vt 0.500077 0.344426
vt 0.799920 0.344426
vt 0.575038 0.735896
vt 0.575015 0.669538
vt 0.784840 0.601895
vt 0.492583 0.601895
vt 0.580635 0.993365
vt 0.424049 0.668004
vt 0.424049 0.608054
vt 0.799828 0.278068
vt 0.500077 0.278068
vt 0.277921 0.668004
vt 0.277921 0.608054
vt 0.350985 0.608054
vt 0.350985 0.668004
vt 0.725942 0.883829
vt 0.726763 0.993365
vt 0.653699 0.993365
vt 0.652002 0.883829
vt 0.724890 0.669538
vt 0.724959 0.735895
vt 0.649999 0.735895
vt 0.649952 0.669538
vt 0.725121 0.774293
vt 0.650305 0.774292
vt 0.424666 0.382823
vt 0.422092 0.492359
vt 0.348152 0.492359
vt 0.349849 0.382823
vt 0.350155 0.344426
vt 0.425116 0.344426
vt 0.419519 0.601895
vt 0.346454 0.601895
vt 0.425139 0.278068
vt 0.350201 0.278068
vt 0.799938 0.774293
vt 0.799883 0.883829
vt 0.799920 0.735895
vt 0.799828 0.669538
vt 0.799828 0.993365
vt 0.204856 0.668004
vt 0.204856 0.608054
s 1
f 5/1/1 15/2/2 10/3/2 1/4/1
f 46/5/3 49/6/4 12/7/5 3/8/3
f 24/9/6 22/10/6 2/11/6 6/12/6
f 13/13/7 7/14/8 3/15/8 12/16/7
f 30/17/9 24/18/10 6/19/11 17/20/11
f 45/21/12 41/22/13 4/23/14 19/24/15
f 23/25/16 26/26/17 15/27/18 5/28/16
f 20/29/19 14/30/20 11/31/20 19/32/19
f 16/33/21 9/34/21 10/3/2 15/2/2
f 25/35/22 16/36/23 15/27/18 26/26/17
f 44/37/24 11/38/25 12/7/5 49/6/4
f 13/13/7 12/16/7 11/31/20 14/30/20
f 17/39/26 6/40/26 2/41/26 18/42/26
f 16/33/21 17/39/26 18/42/26 9/34/21
f 8/43/27 20/29/19 19/32/19 4/44/27
f 44/37/24 45/21/12 19/24/15 11/38/25
f 25/35/22 30/17/9 17/20/11 16/36/23
f 53/45/28 55/46/29 30/17/9 25/35/22
f 9/47/30 18/48/31 29/49/32 27/50/33
f 9/47/30 27/50/33 28/51/4 10/52/34
f 53/45/28 25/35/22 26/26/17 58/53/17
f 57/54/16 58/53/17 26/26/17 23/25/16
f 18/48/31 2/55/31 22/56/35 29/49/32
f 55/46/29 52/57/36 24/18/10 30/17/9
f 52/58/36 56/59/37 22/10/38 24/9/38
f 1/60/3 10/52/34 28/51/4 21/61/3
f 47/62/39 41/63/40 31/64/41 37/65/42
f 50/66/43 47/67/44 37/68/42 40/69/45
f 42/70/16 43/71/17 33/72/17 32/73/16
f 48/74/46 38/75/47 33/72/17 43/71/17
f 48/74/46 50/66/43 40/69/45 38/75/47
f 59/76/48 60/77/49 35/78/50 34/79/51
f 59/76/48 34/79/51 39/80/4 54/81/4
f 60/77/49 56/82/52 31/83/53 35/78/50
f 51/84/3 54/81/4 39/80/4 36/85/3
f 14/86/54 20/87/55 50/66/43 48/74/46
f 14/86/54 48/74/46 43/71/17 13/88/56
f 7/89/16 13/88/56 43/71/17 42/70/16
f 20/87/55 8/90/57 47/67/44 50/66/43
f 8/91/58 4/92/58 41/63/40 47/62/39
f 34/79/51 35/78/50 45/21/12 44/37/24
f 34/79/51 44/37/24 49/6/4 39/80/4
f 35/78/50 31/83/53 41/22/13 45/21/12
f 36/85/3 39/80/4 49/6/4 46/5/3
f 21/61/3 28/51/4 54/81/4 51/84/3
f 29/49/32 22/56/35 56/82/52 60/77/49
f 27/50/33 59/76/48 54/81/4 28/51/4
f 27/50/33 29/49/32 60/77/49 59/76/48
f 37/65/42 31/64/41 56/59/37 52/58/36
f 40/69/45 37/68/42 52/57/36 55/46/29
f 32/73/16 33/72/17 58/53/17 57/54/16
f 38/75/47 53/45/28 58/53/17 33/72/17
f 38/75/47 40/69/45 55/46/29 53/45/28
