# Blender 4.0.1
# www.blender.org
mtllib LeftCurbGutter.mtl
o Plane.007
v -3.393709 0.000351 0.000512
v -3.327924 0.000351 -5.804314
v -3.354684 0.000351 -8.557404
v -3.422311 0.000351 -11.292789
v -3.896729 0.014270 -12.432458
v -5.132122 0.011801 -14.017999
v -6.427570 0.017337 -15.483792
v -15.950338 0.031669 -24.526876
v -3.674653 0.251725 -5.804431
v -3.731688 0.252307 -8.666489
v -3.845586 0.256814 -11.321335
v -4.319714 0.272939 -12.435222
v -5.437700 0.270041 -13.848552
v -6.732419 0.273595 -15.318484
v -16.161562 0.287668 -24.310801
v -3.755550 0.252332 0.000396
v -3.447342 0.251592 -5.873538
v -3.341588 0.153466 -5.864488
v -3.492923 0.251759 -8.700911
v -3.379386 0.153876 -8.653735
v -3.595515 0.253013 -11.383489
v -3.469420 0.156282 -11.364109
v -4.069489 0.268163 -12.505560
v -3.944155 0.171051 -12.494805
v -5.223082 0.265470 -13.972424
v -5.136820 0.168093 -14.019584
v -6.517548 0.269512 -15.441049
v -6.431228 0.172174 -15.487007
v -15.975667 0.285445 -24.451569
v -15.919357 0.189132 -24.515387
v -3.413958 0.153959 -0.059855
v -3.523804 0.251770 -0.069114
v -2.982674 0.000351 0.000512
v -2.916888 0.000351 -5.804314
v -2.943649 0.000351 -8.557404
v -3.011276 0.000351 -11.292789
v -3.504681 0.014270 -12.557852
v -4.828223 0.011801 -14.199337
v -6.146247 0.017337 -15.700706
v -15.673245 0.031669 -24.725811
vn 0.0100 0.9999 -0.0088
vn 0.0144 0.9998 -0.0101
vn 0.0145 0.9998 -0.0134
vn 0.0187 0.9998 0.0060
vn 0.0090 1.0000 0.0007
vn 0.6884 -0.0410 -0.7242
vn 0.7496 0.0099 -0.6618
vn 0.7882 0.0056 -0.6153
vn 0.9171 0.1140 -0.3820
vn 0.9770 0.2114 -0.0282
vn 0.9934 0.1145 0.0118
vn 0.0015 1.0000 0.0001
vn 0.9929 0.1183 -0.0116
vn 0.5084 0.6765 -0.5328
vn 0.5362 0.7005 -0.4709
vn 0.5639 0.6966 -0.4436
vn 0.6101 0.7529 -0.2469
vn 0.6340 0.7730 -0.0221
vn 0.6678 0.7443 -0.0098
vn 0.6721 0.7404 0.0086
vn 0.0015 1.0000 -0.0000
vn -0.0005 1.0000 -0.0011
vn 0.0007 1.0000 0.0009
vn -0.0000 1.0000 -0.0000
vn 0.0017 0.9999 0.0109
vn 0.0016 1.0000 0.0023
vt 0.462183 0.373040
vt 0.392504 0.663688
vt 0.387142 0.663249
vt 0.456489 0.373241
vt 0.470301 0.328800
vt 0.464597 0.328778
vt 0.473621 0.288802
vt 0.467731 0.289958
vt 0.472604 0.260800
vt 0.466661 0.261715
vt 0.455264 0.200193
vt 0.449710 0.201350
vt 0.465369 0.373091
vt 0.468915 0.373719
vt 0.398719 0.665974
vt 0.395378 0.664467
vt 0.473501 0.328881
vt 0.477098 0.329259
vt 0.476987 0.287304
vt 0.480681 0.285565
vt 0.475948 0.259133
vt 0.479276 0.256710
vt 0.458274 0.197959
vt 0.461043 0.194769
vt 0.396037 0.005800
vt 0.399036 0.003312
vt 0.441857 0.132965
vt 0.438858 0.135417
vt 0.435722 0.136722
vt 0.430147 0.136971
vt 0.392827 0.007133
vt 0.387142 0.007379
vt 0.489884 0.284136
vt 0.485128 0.329415
vt 0.476977 0.374550
vt 0.406478 0.666400
vt 0.450969 0.129757
vt 0.470100 0.191538
vt 0.488113 0.253032
vt 0.408162 0.000128
s 0
f 27/1/1 29/2/1 15/3/1 14/4/1
f 25/5/2 27/1/2 14/4/2 13/6/2
f 23/7/3 25/5/3 13/6/3 12/8/3
f 21/9/4 23/7/4 12/8/4 11/10/4
f 19/11/5 21/9/5 11/10/5 10/12/5
f 28/13/6 7/14/6 8/15/6 30/16/6
f 26/17/7 6/18/7 7/14/7 28/13/7
f 24/19/8 5/20/8 6/18/8 26/17/8
f 22/21/9 4/22/9 5/20/9 24/19/9
f 20/23/10 3/24/10 4/22/10 22/21/10
f 31/25/11 1/26/11 2/27/11 18/28/11
f 17/29/12 19/11/12 10/12/12 9/30/12
f 18/28/13 2/27/13 3/24/13 20/23/13
f 28/13/14 30/16/14 29/2/14 27/1/14
f 26/17/15 28/13/15 27/1/15 25/5/15
f 24/19/16 26/17/16 25/5/16 23/7/16
f 22/21/17 24/19/17 23/7/17 21/9/17
f 20/23/18 22/21/18 21/9/18 19/11/18
f 18/28/19 20/23/19 19/11/19 17/29/19
f 31/25/20 18/28/20 17/29/20 32/31/20
f 32/31/21 17/29/21 9/30/21 16/32/21
f 6/18/22 5/20/22 37/33/22 38/34/22
f 8/15/23 7/14/23 39/35/23 40/36/23
f 3/24/24 2/27/24 34/37/24 35/38/24
f 5/20/25 4/22/25 36/39/25 37/33/25
f 7/14/26 6/18/26 38/34/26 39/35/26
f 2/27/24 1/26/24 33/40/24 34/37/24
f 4/22/24 3/24/24 35/38/24 36/39/24
