# Blender 4.0.1
# www.blender.org
mtllib LeftCurb.mtl
o Plane.005
v 3.398191 0.251535 0.000512
v 3.366929 0.251535 -9.999488
v 3.032700 0.251535 -12.752578
v 2.179074 0.251535 -15.799366
v 1.704656 0.265453 -16.627632
v 0.663864 0.262984 -18.213173
v -0.631584 0.268520 -19.678967
v -11.401144 0.282852 -30.350563
v 3.002723 -0.011621 -9.999947
v 2.610314 -0.011621 -12.962085
v 1.663965 -0.011621 -15.855556
v 1.189501 0.005287 -16.633314
v 0.379521 0.002288 -17.880508
v -0.914421 0.003254 -19.353903
v -11.504535 0.025723 -29.934490
v 3.004887 -0.011621 0.000053
v 3.020200 0.184070 -9.999605
v 3.100513 0.251535 -9.999488
v 2.655696 0.184652 -12.861663
v 2.748284 0.251535 -12.811473
v 1.755798 0.189159 -15.827912
v 1.859188 0.251535 -15.815539
v 1.281671 0.205285 -16.630396
v 1.384412 0.266321 -16.629150
v 0.358285 0.202386 -18.043726
v 0.412292 0.263694 -18.117012
v -0.936433 0.205940 -19.513659
v -0.881503 0.267914 -19.585455
v -11.612369 0.220013 -30.134487
v -11.595391 0.284547 -30.233395
v 3.121080 0.251535 0.000512
v 3.036350 0.184677 0.000396
vn 0.0021 1.0000 -0.0007
vn 0.0011 1.0000 0.0024
vn 0.0022 1.0000 -0.0031
vn 0.0009 0.9999 0.0170
vn -0.0000 1.0000 -0.0000
vn -0.9289 0.2266 0.2929
vn -0.6526 0.3804 0.6553
vn -0.6846 0.4098 0.6028
vn -0.7869 0.3446 0.5119
vn -0.8055 0.3324 0.4905
vn -0.9839 0.1249 0.1279
vn -0.9923 0.1239 0.0009
vn -0.4174 0.8053 0.4210
vn -0.4266 0.8217 0.3779
vn -0.4884 0.8128 0.3176
vn -0.5033 0.8063 0.3109
vn -0.5804 0.7954 0.1745
vn -0.6259 0.7759 0.0791
vn -0.6312 0.7756 0.0011
vt 0.367410 0.468935
vt 0.373476 0.467786
vt 0.291131 0.809616
vt 0.285880 0.809673
vt 0.375833 0.424213
vt 0.381982 0.423290
vt 0.379423 0.383447
vt 0.385894 0.379978
vt 0.380318 0.361475
vt 0.386886 0.357864
vt 0.370942 0.288372
vt 0.376579 0.284593
vt 0.364728 0.293649
vt 0.368832 0.290379
vt 0.377818 0.362807
vt 0.372873 0.364414
vt 0.355982 0.223621
vt 0.361851 0.221628
vt 0.360621 0.464028
vt 0.365021 0.468075
vt 0.283840 0.807810
vt 0.280405 0.801820
vt 0.368962 0.419326
vt 0.373475 0.423283
vt 0.371918 0.385360
vt 0.376919 0.384540
vt 0.349284 0.225582
vt 0.353662 0.224373
vt 0.280405 0.004154
vt 0.284747 0.002794
vt 0.287125 0.002048
vt 0.293257 0.000128
s 0
f 28/1/1 7/2/1 8/3/1 30/4/1
f 26/5/2 6/6/2 7/2/2 28/1/2
f 24/7/3 5/8/3 6/6/3 26/5/3
f 22/9/4 4/10/4 5/8/4 24/7/4
f 20/11/5 3/12/5 4/10/5 22/9/5
f 10/13/6 19/14/6 21/15/6 11/16/6
f 18/17/5 2/18/5 3/12/5 20/11/5
f 14/19/7 27/20/7 29/21/7 15/22/7
f 13/23/8 25/24/8 27/20/8 14/19/8
f 12/25/9 23/26/9 25/24/9 13/23/9
f 11/16/10 21/15/10 23/26/10 12/25/10
f 9/27/11 17/28/11 19/14/11 10/13/11
f 16/29/12 32/30/12 17/28/12 9/27/12
f 28/1/13 30/4/13 29/21/13 27/20/13
f 26/5/14 28/1/14 27/20/14 25/24/14
f 24/7/15 26/5/15 25/24/15 23/26/15
f 22/9/16 24/7/16 23/26/16 21/15/16
f 20/11/17 22/9/17 21/15/17 19/14/17
f 18/17/18 20/11/18 19/14/18 17/28/18
f 31/31/19 18/17/19 17/28/19 32/30/19
f 31/31/5 1/32/5 2/18/5 18/17/5
