# Blender 4.0.1
# www.blender.org
mtllib RightCurbOuter.mtl.mtl
o Plane.006
v 5.443553 0.251534 -9.999488
v 5.317779 0.251534 -12.003562
v 5.283516 0.251534 -14.564198
v 5.188407 0.254740 -16.471962
v 4.928810 0.254172 -19.019878
v 4.424386 0.276079 -20.892628
v -4.818889 0.261259 -34.279293
v 5.579075 0.251535 0.000512
v 5.990525 0.025800 0.000053
v 5.825925 0.025799 -9.999948
v 5.758289 0.025799 -11.795122
v 5.733254 0.025799 -14.272558
v 5.661139 0.026018 -16.225254
v 5.349866 0.025980 -19.179182
v 4.840646 0.052453 -21.045847
v -4.600272 0.029502 -34.654335
v 5.929231 0.192699 0.000393
v 5.841412 0.251535 0.000512
v 5.695287 0.251534 -9.999488
v 5.778866 0.191192 -9.999611
v 5.588889 0.251534 -11.943777
v 5.682849 0.193471 -11.894429
v 5.547515 0.251534 -14.411084
v 5.634767 0.200308 -14.353491
v 5.459219 0.253865 -16.331976
v 5.550319 0.203481 -16.284369
v 5.183012 0.253455 -18.999023
v 5.265083 0.202825 -19.035328
v 4.675912 0.276691 -20.870113
v 4.758641 0.226210 -20.905684
v -4.617024 0.259547 -34.351017
v -4.573221 0.204239 -34.437641
v -0.487649 0.267011 -29.153286
v -0.143807 0.038410 -29.405956
v -0.259778 0.266201 -29.159307
v -0.189555 0.212766 -29.218662
v -2.681452 0.264135 -31.991722
v -2.433317 0.033956 -32.341248
v -2.470229 0.262874 -32.056332
v -2.420853 0.208502 -32.136505
v 2.086872 0.271545 -25.124199
v 2.466923 0.045432 -25.327145
v 2.326571 0.271446 -25.115953
v 2.403047 0.219488 -25.163416
v -5.633763 0.269714 -35.625435
v -5.199781 0.037957 -35.635910
v -5.466849 0.268002 -35.491146
v -5.370120 0.212694 -35.499264
v -5.151494 0.305830 -36.835735
v -4.744461 0.074073 -36.684826
v -5.046144 0.304118 -36.649200
v -4.953280 0.248810 -36.620937
v -1.293228 0.300633 -39.921947
v -0.973576 0.068876 -39.628223
v -1.266304 0.298921 -39.709415
v -1.191043 0.243613 -39.648113
v 4.824754 0.291695 -44.612087
v 5.144406 0.059938 -44.318363
v 4.851678 0.289983 -44.399555
v 4.926939 0.234675 -44.338253
vn 0.5855 0.5964 -0.5492
vn 0.8051 0.5542 -0.2114
vn 0.8626 0.4978 -0.0903
vn 0.8650 0.5007 -0.0344
vn 0.8941 0.4478 -0.0126
vn 0.9506 0.3100 -0.0150
vn 0.0052 1.0000 -0.0062
vn -0.0008 0.9999 0.0123
vn 0.0032 1.0000 -0.0005
vn 0.0009 1.0000 0.0014
vn -0.0000 1.0000 -0.0000
vn 0.9417 0.3340 -0.0416
vn 0.3761 0.8566 -0.3532
vn 0.4809 0.8686 -0.1194
vn 0.5057 0.8611 -0.0526
vn 0.5044 0.8632 -0.0214
vn 0.5200 0.8541 -0.0083
vn 0.5602 0.8279 -0.0290
vn 0.5709 0.8210 -0.0085
vn 0.4231 0.8644 -0.2718
vn 0.0020 1.0000 -0.0025
vn 0.6545 0.6288 -0.4198
vn 0.4081 0.8577 -0.3129
vn 0.0040 1.0000 -0.0042
vn 0.6287 0.6066 -0.4865
vn 0.6857 0.6203 -0.3808
vn -0.0010 1.0000 -0.0006
vn 0.4332 0.8685 -0.2409
vn 0.0092 1.0000 0.0007
vn 0.4410 0.8372 -0.3234
vn 0.6146 0.6711 -0.4145
vn -0.0161 0.9996 0.0243
vn 0.4774 0.8551 0.2025
vn 0.7279 0.6102 0.3128
vn 0.0065 1.0000 0.0064
vn 0.3357 0.8459 0.4145
vn 0.5189 0.5507 0.6538
vn 0.0070 1.0000 0.0072
vn 0.3081 0.8630 0.4003
vn 0.4645 0.6470 0.6047
vt 0.769727 0.298731
vt 0.767700 0.293279
vt 0.806823 0.235762
vt 0.808702 0.241554
vt 0.636958 0.596039
vt 0.632934 0.592815
vt 0.641433 0.552814
vt 0.645228 0.556149
vt 0.632576 0.654163
vt 0.628111 0.655356
vt 0.631419 0.695112
vt 0.627165 0.696824
vt 0.630950 0.747459
vt 0.627024 0.749564
vt 0.628818 0.999955
vt 0.625045 0.999950
vt 0.626083 0.787730
vt 0.629732 0.787764
vt 0.776024 0.301205
vt 0.771310 0.300471
vt 0.810206 0.243485
vt 0.814759 0.244518
vt 0.644359 0.596079
vt 0.639010 0.596761
vt 0.647315 0.556834
vt 0.652580 0.555899
vt 0.640435 0.650037
vt 0.634772 0.653127
vt 0.639123 0.690534
vt 0.633558 0.693868
vt 0.639041 0.745010
vt 0.633292 0.746379
vt 0.637260 0.787660
vt 0.631918 0.787746
vt 0.631067 0.999939
vt 0.636640 0.999880
vt 0.685415 0.460302
vt 0.730376 0.367306
vt 0.732311 0.368532
vt 0.687436 0.461254
vt 0.692523 0.460498
vt 0.737192 0.368049
vt 0.682016 0.456224
vt 0.727334 0.362601
vt 0.827049 0.216534
vt 0.830533 0.213359
vt 0.824589 0.216455
vt 0.818937 0.213781
vt 0.818339 0.190799
vt 0.820809 0.186967
vt 0.816051 0.191423
vt 0.810018 0.190912
vt 0.746664 0.117388
vt 0.747764 0.113041
vt 0.744736 0.118670
vt 0.738969 0.119676
vt 0.632710 0.004363
vt 0.633827 0.000045
vt 0.630776 0.005649
vt 0.625045 0.006676
s 0
f 40/1/1 38/2/1 16/3/1 32/4/1
f 28/5/2 14/6/2 15/7/2 30/8/2
f 26/9/3 13/10/3 14/6/3 28/5/3
f 24/11/4 12/12/4 13/10/4 26/9/4
f 22/13/5 11/14/5 12/12/5 24/11/5
f 17/15/6 9/16/6 10/17/6 20/18/6
f 37/19/7 39/20/7 31/21/7 7/22/7
f 5/23/8 27/24/8 29/25/8 6/26/8
f 4/27/9 25/28/9 27/24/9 5/23/9
f 3/29/10 23/30/10 25/28/10 4/27/10
f 2/31/11 21/32/11 23/30/11 3/29/11
f 1/33/11 19/34/11 21/32/11 2/31/11
f 20/18/12 10/17/12 11/14/12 22/13/12
f 40/1/13 32/4/13 31/21/13 39/20/13
f 28/5/14 30/8/14 29/25/14 27/24/14
f 26/9/15 28/5/15 27/24/15 25/28/15
f 24/11/16 26/9/16 25/28/16 23/30/16
f 22/13/17 24/11/17 23/30/17 21/32/17
f 20/18/18 22/13/18 21/32/18 19/34/18
f 17/15/19 20/18/19 19/34/19 18/35/19
f 8/36/11 18/35/11 19/34/11 1/33/11
f 44/37/20 36/38/20 35/39/20 43/40/20
f 41/41/21 43/40/21 35/39/21 33/42/21
f 44/37/22 42/43/22 34/44/22 36/38/22
f 36/38/23 40/1/23 39/20/23 35/39/23
f 33/42/24 35/39/24 39/20/24 37/19/24
f 36/38/25 34/44/25 38/2/25 40/1/25
f 30/8/26 15/7/26 42/43/26 44/37/26
f 6/26/27 29/25/27 43/40/27 41/41/27
f 30/8/28 44/37/28 43/40/28 29/25/28
f 7/22/29 31/21/29 47/45/29 45/46/29
f 31/21/30 32/4/30 48/47/30 47/45/30
f 32/4/31 16/3/31 46/48/31 48/47/31
f 45/46/32 47/45/32 51/49/32 49/50/32
f 47/45/33 48/47/33 52/51/33 51/49/33
f 48/47/34 46/48/34 50/52/34 52/51/34
f 49/50/35 51/49/35 55/53/35 53/54/35
f 51/49/36 52/51/36 56/55/36 55/53/36
f 52/51/37 50/52/37 54/56/37 56/55/37
f 53/54/38 55/53/38 59/57/38 57/58/38
f 55/53/39 56/55/39 60/59/39 59/57/39
f 56/55/40 54/56/40 58/60/40 60/59/40
