# Blender 4.0.1
# www.blender.org
mtllib RightCurbGutter.mtl
o Plane.008
v 0.019543 0.000894 -9.999488
v -0.106232 0.000894 -12.003562
v -0.476511 0.000894 -16.612658
v -1.101885 0.004101 -19.194050
v -2.405435 0.003531 -21.995440
v -4.331125 0.025439 -24.684254
v -6.653368 -0.048987 -57.998508
v 0.155064 0.000895 0.000512
v 0.505220 0.237861 0.000393
v 0.176467 0.251535 0.000512
v 0.030342 0.251534 -9.999488
v 0.354855 0.236354 -9.999611
v -0.076056 0.251534 -11.943777
v 0.258838 0.238633 -11.894429
v -0.412695 0.251534 -16.596336
v -0.067862 0.245470 -16.584719
v -1.037970 0.253865 -19.192520
v -0.694252 0.248643 -19.191545
v -2.410485 0.253454 -22.092459
v -2.112964 0.247986 -22.162113
v -4.337805 0.276691 -24.778578
v -4.039365 0.271372 -24.847878
v -6.666361 0.199941 -58.131573
v -6.387514 0.189795 -58.119953
v -0.350063 0.000894 -9.842812
v -0.475837 0.000894 -11.846886
v -0.846116 0.000894 -16.455982
v -1.471490 0.004101 -19.037374
v -2.775040 0.003531 -21.838764
v -4.700730 0.025439 -24.527578
v -7.054775 -0.048987 -57.993130
v -0.214541 0.000895 0.157189
v -11.557406 0.018029 -31.620245
v -11.526603 0.268119 -31.727678
v -11.248191 0.260386 -31.638880
v -11.951465 0.018029 -31.696886
v -6.525203 0.021734 -27.391443
v -6.545793 0.272405 -27.491756
v -6.256322 0.265879 -27.567389
v -6.894808 0.021734 -27.234768
v -14.456311 -0.076232 -34.065620
v -14.440699 0.167052 -34.198952
v -14.157305 0.138078 -34.177681
v -14.856608 -0.046386 -34.060276
v -14.288387 -0.038590 -38.805099
v -14.319993 0.207516 -38.933880
v -14.051121 0.187956 -38.986668
v -14.663457 -0.023667 -38.704109
v -15.203353 -0.077323 -35.412731
v -15.244260 0.167372 -35.539364
v -14.980374 0.143105 -35.624359
v -15.565248 -0.054938 -35.263931
v -12.381595 -0.042030 -44.556377
v -12.403896 0.205487 -44.687294
v -12.130035 0.190634 -44.707886
v -12.769829 -0.034568 -44.503189
v -9.055483 0.019881 -29.724888
v -9.068105 0.270262 -29.821457
v -8.808222 0.263133 -29.865463
v -9.395542 0.019881 -29.622385
v -13.170062 -0.074709 -32.700603
v -13.179608 0.171978 -32.820389
v -12.897746 0.153625 -32.851009
v -13.554860 -0.059786 -32.619236
v 0.505220 0.161383 0.000393
v 0.354855 0.159876 -9.999611
v 0.258838 0.162155 -11.894429
v -0.067862 0.168992 -16.584719
v -0.694252 0.172164 -19.191545
v -2.112964 0.171508 -22.162113
v -4.039365 0.194894 -24.847878
v -6.387514 0.113317 -58.119953
v -11.248191 0.183908 -31.638880
v -6.256322 0.189401 -27.567389
v -14.157305 0.061600 -34.177681
v -14.051121 0.111478 -38.986668
v -14.980374 0.066627 -35.624359
v -12.130035 0.114156 -44.707886
v -8.808222 0.186655 -29.865463
v -12.897746 0.077147 -32.851009
vn -0.8872 -0.2642 -0.3782
vn -0.7956 0.1998 0.5720
vn -0.8897 0.1846 0.4176
vn -0.9452 0.2331 0.2286
vn -0.9821 0.1728 0.0750
vn -0.9955 0.0744 0.0585
vn 0.0455 0.9988 0.0192
vn 0.0172 0.9998 -0.0037
vn 0.0158 0.9998 -0.0077
vn 0.0164 0.9999 -0.0029
vn 0.0280 0.9996 -0.0013
vn 0.0427 0.9991 -0.0017
vn 0.0441 0.9990 -0.0007
vn -0.9978 0.0641 0.0141
vn -0.0000 1.0000 -0.0000
vn 0.0026 1.0000 0.0063
vn 0.0005 1.0000 0.0011
vn 0.0097 0.9999 0.0033
vn -0.0001 1.0000 -0.0002
vn -0.0000 1.0000 -0.0009
vn 0.0311 0.9986 -0.0428
vn -0.5751 0.3266 0.7501
vn -0.7610 0.1982 0.6177
vn 0.0164 0.9998 -0.0152
vn -0.0004 1.0000 -0.0010
vn 0.0521 0.9977 -0.0438
vn 0.0818 0.9931 -0.0837
vn -0.6898 0.3390 0.6397
vn 0.0593 0.9979 0.0260
vn 0.0916 0.9951 0.0376
vn -0.9286 -0.2698 -0.2548
vn -0.8457 0.2161 0.4879
vn 0.0908 0.9946 -0.0511
vn 0.0606 0.9974 -0.0384
vn 0.0311 0.9995 0.0090
vn 0.0663 0.9976 0.0222
vn -0.9163 -0.2602 -0.3044
vn -0.6590 0.2368 0.7139
vn 0.0199 0.9995 -0.0228
vn -0.0002 1.0000 -0.0006
vn -0.5291 0.3716 0.7629
vn 0.0642 0.9818 -0.1785
vn 0.0183 0.9933 -0.1140
vn 0.8692 -0.0000 -0.4945
vn 0.9723 -0.0000 -0.2336
vn 0.9639 -0.0000 0.2664
vn 0.7252 -0.0000 -0.6885
vn 0.9024 -0.0000 -0.4310
vn 0.7751 -0.0000 -0.6319
vn 0.9987 -0.0000 -0.0506
vn 0.5879 -0.0000 -0.8089
vn 0.9976 -0.0000 -0.0695
vn 0.9999 -0.0000 -0.0150
vn 0.8126 -0.0000 -0.5828
vn 0.9193 -0.0000 0.3936
vn 0.5921 -0.0000 -0.8058
vn 0.6692 -0.0000 -0.7431
vn 0.9480 -0.0000 0.3183
vt 0.258011 0.155797
vt 0.252655 0.156922
vt 0.130216 0.003061
vt 0.135619 0.001993
vt 0.196865 0.603020
vt 0.193513 0.599626
vt 0.223333 0.548452
vt 0.226449 0.552018
vt 0.175585 0.653955
vt 0.170945 0.652844
vt 0.163932 0.700441
vt 0.159306 0.700054
vt 0.153556 0.782992
vt 0.148964 0.783559
vt 0.149592 0.818595
vt 0.145136 0.818178
vt 0.247428 0.157977
vt 0.125050 0.004711
vt 0.188167 0.598764
vt 0.218016 0.547774
vt 0.164798 0.652991
vt 0.153076 0.700093
vt 0.142931 0.784119
vt 0.139338 0.817826
vt 0.125050 0.995984
vt 0.130918 0.996368
vt 0.135373 0.996719
vt 0.170522 0.703446
vt 0.160068 0.786121
vt 0.156014 0.821762
vt 0.141780 0.999950
vt 0.233285 0.554130
vt 0.203661 0.605359
vt 0.182422 0.656722
vt 0.143138 0.000050
vt 0.265538 0.154779
vt 0.297524 0.454132
vt 0.335855 0.413615
vt 0.342501 0.411168
vt 0.303673 0.454994
vt 0.290336 0.450151
vt 0.328159 0.412256
vt 0.332725 0.409998
vt 0.294961 0.450227
vt 0.256752 0.497064
vt 0.259505 0.500951
vt 0.251552 0.496395
vt 0.266295 0.502872
vt 0.360651 0.377287
vt 0.373599 0.347200
vt 0.379320 0.342947
vt 0.366775 0.374011
vt 0.352737 0.376969
vt 0.365224 0.348519
vt 0.369078 0.345039
vt 0.356930 0.374213
vt 0.371443 0.317213
vt 0.326384 0.245587
vt 0.333326 0.245380
vt 0.378828 0.317249
vt 0.361007 0.317608
vt 0.315474 0.247264
vt 0.320710 0.246738
vt 0.366008 0.316796
s 0
f 53/1/1 54/2/1 23/3/1 7/4/1
f 5/5/2 19/6/2 21/7/2 6/8/2
f 4/9/3 17/10/3 19/6/3 5/5/3
f 3/11/4 15/12/4 17/10/4 4/9/4
f 2/13/5 13/14/5 15/12/5 3/11/5
f 1/15/6 11/16/6 13/14/6 2/13/6
f 55/17/7 24/18/7 23/3/7 54/2/7
f 20/19/8 22/20/8 21/7/8 19/6/8
f 18/21/9 20/19/9 19/6/9 17/10/9
f 16/22/10 18/21/10 17/10/10 15/12/10
f 14/23/11 16/22/11 15/12/11 13/14/11
f 12/24/12 14/23/12 13/14/12 11/16/12
f 9/25/13 12/24/13 11/16/13 10/26/13
f 8/27/14 10/26/14 11/16/14 1/15/14
f 2/13/15 3/11/15 27/28/15 26/29/15
f 8/27/15 1/15/15 25/30/15 32/31/15
f 5/5/16 6/8/16 30/32/16 29/33/16
f 3/11/17 4/9/17 28/34/17 27/28/17
f 1/15/15 2/13/15 26/29/15 25/30/15
f 53/1/18 7/4/18 31/35/18 56/36/18
f 4/9/19 5/5/19 29/33/19 28/34/19
f 57/37/20 33/38/20 36/39/20 60/40/20
f 59/41/21 35/42/21 34/43/21 58/44/21
f 57/37/22 58/44/22 34/43/22 33/38/22
f 6/8/23 21/7/23 38/45/23 37/46/23
f 22/20/24 39/47/24 38/45/24 21/7/24
f 6/8/25 37/46/25 40/48/25 30/32/25
f 61/49/26 41/50/26 44/51/26 64/52/26
f 63/53/27 43/54/27 42/55/27 62/56/27
f 61/49/28 62/56/28 42/55/28 41/50/28
f 49/57/29 45/58/29 48/59/29 52/60/29
f 51/61/30 47/62/30 46/63/30 50/64/30
f 49/57/31 50/64/31 46/63/31 45/58/31
f 41/50/32 42/55/32 50/64/32 49/57/32
f 43/54/33 51/61/33 50/64/33 42/55/33
f 41/50/34 49/57/34 52/60/34 44/51/34
f 45/58/35 53/1/35 56/36/35 48/59/35
f 47/62/36 55/17/36 54/2/36 46/63/36
f 45/58/37 46/63/37 54/2/37 53/1/37
f 37/46/38 38/45/38 58/44/38 57/37/38
f 39/47/39 59/41/39 58/44/39 38/45/39
f 37/46/40 57/37/40 60/40/40 40/48/40
f 33/38/41 34/43/41 62/56/41 61/49/41
f 35/42/42 63/53/42 62/56/42 34/43/42
f 33/38/43 61/49/43 64/52/43 36/39/43
f 51/61/44 43/54/44 75/54/44 77/61/44
f 18/21/45 16/22/45 68/22/45 69/21/45
f 47/62/46 51/61/46 77/61/46 76/62/46
f 43/54/47 63/53/47 80/53/47 75/54/47
f 20/19/48 18/21/48 69/21/48 70/19/48
f 39/47/49 22/20/49 71/20/49 74/47/49
f 14/23/50 12/24/50 66/24/50 67/23/50
f 35/42/51 59/41/51 79/41/51 73/42/51
f 16/22/52 14/23/52 67/23/52 68/22/52
f 12/24/53 9/25/53 65/25/53 66/24/53
f 22/20/54 20/19/54 70/19/54 71/20/54
f 24/18/55 55/17/55 78/17/55 72/18/55
f 63/53/56 35/42/56 73/42/56 80/53/56
f 59/41/57 39/47/57 74/47/57 79/41/57
f 55/17/58 47/62/58 76/62/58 78/17/58
