# Blender 4.0.1
# www.blender.org
mtllib RightCurbCorner.mtl
o Plane
v -9.353569 0.232382 -29.353588
v -4.941910 0.299594 -33.824238
v -10.584140 0.269628 -30.430807
v -5.815170 0.364441 -35.276237
v -11.584978 0.241930 -31.540325
v -5.555888 0.364102 -36.689774
v -13.171409 0.241930 -33.448112
v -6.340972 0.364441 -38.575573
v -13.878401 0.241930 -34.923790
v -7.453199 0.364441 -39.809593
v -13.853986 0.241930 -36.605782
v -8.661574 0.364441 -41.105816
vn 0.0126 0.9995 0.0298
vn -0.0239 0.9997 -0.0041
vn -0.0126 0.9999 0.0080
vn -0.0123 0.9999 0.0082
vn -0.0160 0.9999 0.0063
vt 0.983360 0.029608
vt 0.920567 0.777384
vt 0.731441 0.794228
vt 0.794227 0.003558
vt 0.626626 0.925051
vt 0.619967 0.000099
vt 0.400417 0.999901
vt 0.330604 0.005997
vt 0.206672 0.996129
vt 0.146513 0.056402
vt 0.000099 0.988638
vt 0.000099 0.187032
s 0
f 1/1/1 2/2/1 4/3/1 3/4/1
f 3/4/2 4/3/2 6/5/2 5/6/2
f 5/6/3 6/5/3 8/7/3 7/8/3
f 7/8/4 8/7/4 10/9/4 9/10/4
f 9/10/5 10/9/5 12/11/5 11/12/5
