# Blender 4.0.1
# www.blender.org
mtllib RightCurb.mtl
o Plane.006
v 5.443553 0.251535 -9.999488
v 5.317779 0.251535 -12.003562
v 4.796380 0.251535 -15.599678
v 4.322126 0.254741 -16.608927
v 2.454343 0.254173 -19.406746
v 1.153496 0.276081 -20.845297
v -10.259018 0.261261 -31.842979
v 5.579075 0.251535 0.000512
v 5.990525 0.025800 0.000053
v 5.825925 0.025800 -9.999948
v 5.758289 0.025800 -11.795122
v 5.329547 0.025800 -15.544444
v 4.855340 0.026019 -16.604166
v 2.756908 0.025981 -19.740093
v 1.454556 0.052455 -21.171045
v -10.137280 0.029504 -32.259670
v 5.929231 0.192699 0.000393
v 5.841412 0.251535 0.000512
v 5.695287 0.251535 -9.999488
v 5.778866 0.191193 -9.999611
v 5.588889 0.251535 -11.943777
v 5.682849 0.193472 -11.894429
v 5.101130 0.251535 -15.583358
v 5.205029 0.200309 -15.571739
v 4.626975 0.253866 -16.607397
v 4.729759 0.203482 -16.606422
v 2.690226 0.253456 -19.503765
v 2.746813 0.202826 -19.573420
v 1.387750 0.276693 -20.939621
v 1.445256 0.226212 -21.008921
v -10.080403 0.259549 -31.961264
v -10.058778 0.204241 -32.055889
vn 0.5872 0.5278 -0.6137
vn 0.6209 0.5542 -0.5544
vn 0.7202 0.4993 -0.4817
vn 0.7769 0.5225 -0.3513
vn 0.8751 0.4720 -0.1064
vn 0.9506 0.3100 -0.0150
vn 0.0012 1.0000 -0.0027
vn 0.0048 0.9999 0.0113
vn 0.0026 1.0000 -0.0019
vn 0.0014 1.0000 0.0021
vn -0.0000 1.0000 -0.0000
vn 0.9417 0.3340 -0.0416
vn 0.3604 0.8533 -0.3767
vn 0.3739 0.8686 -0.3250
vn 0.4234 0.8605 -0.2832
vn 0.4420 0.8741 -0.2015
vn 0.4977 0.8649 -0.0649
vn 0.5602 0.8279 -0.0290
vn 0.5709 0.8210 -0.0085
vt 0.256800 0.498038
vt 0.260987 0.501716
vt 0.159613 0.865474
vt 0.156380 0.859738
vt 0.266714 0.453953
vt 0.271076 0.457585
vt 0.275202 0.371559
vt 0.280150 0.370273
vt 0.274624 0.345348
vt 0.279188 0.343271
vt 0.251971 0.262782
vt 0.255258 0.259206
vt 0.157430 0.001570
vt 0.161325 0.000128
vt 0.241652 0.219566
vt 0.237878 0.220927
vt 0.248650 0.498073
vt 0.254508 0.497236
vt 0.154422 0.857968
vt 0.149385 0.857714
vt 0.258551 0.453779
vt 0.264461 0.453119
vt 0.266493 0.375894
vt 0.272772 0.372644
vt 0.266000 0.349910
vt 0.272252 0.346622
vt 0.244674 0.268470
vt 0.249985 0.264793
vt 0.230146 0.223925
vt 0.235625 0.221786
vt 0.155114 0.002449
vt 0.149385 0.004648
s 0
f 30/1/1 15/2/1 16/3/1 32/4/1
f 28/5/2 14/6/2 15/2/2 30/1/2
f 26/7/3 13/8/3 14/6/3 28/5/3
f 24/9/4 12/10/4 13/8/4 26/7/4
f 22/11/5 11/12/5 12/10/5 24/9/5
f 17/13/6 9/14/6 10/15/6 20/16/6
f 6/17/7 29/18/7 31/19/7 7/20/7
f 5/21/8 27/22/8 29/18/8 6/17/8
f 4/23/9 25/24/9 27/22/9 5/21/9
f 3/25/10 23/26/10 25/24/10 4/23/10
f 2/27/11 21/28/11 23/26/11 3/25/11
f 1/29/11 19/30/11 21/28/11 2/27/11
f 20/16/12 10/15/12 11/12/12 22/11/12
f 30/1/13 32/4/13 31/19/13 29/18/13
f 28/5/14 30/1/14 29/18/14 27/22/14
f 26/7/15 28/5/15 27/22/15 25/24/15
f 24/9/16 26/7/16 25/24/16 23/26/16
f 22/11/17 24/9/17 23/26/17 21/28/17
f 20/16/18 22/11/18 21/28/18 19/30/18
f 17/13/19 20/16/19 19/30/19 18/31/19
f 8/32/11 18/31/11 19/30/11 1/29/11
