# Blender 4.0.1
# www.blender.org
mtllib Road2.mtl
o Plane.001
v -2.532342 0.000000 0.000000
v 3.467658 0.000000 0.000000
v -3.633261 0.000000 -16.578882
v 1.910021 0.000000 -19.585291
v -2.649257 0.000000 -7.500000
v 3.350743 0.000000 -7.500000
v -2.532342 0.000000 -2.750000
v 3.467658 0.000000 -2.750000
v 2.821210 0.000000 -16.851116
v -3.178789 0.000000 -15.545712
v -4.228489 0.000000 -17.502464
v 0.454317 0.000000 -22.506330
v -4.938058 0.000000 -18.596426
v -0.803076 0.000000 -24.496988
v -5.710173 0.000000 -19.693594
v -1.980880 0.000000 -25.926327
v -14.905499 0.000000 -37.592987
v -18.791117 0.000000 -32.388004
v -2.738651 0.000000 -11.675558
v 3.261349 0.000000 -12.175558
vn -0.0000 1.0000 -0.0000
vt 0.619249 0.413527
vt 0.778854 0.448252
vt 0.754615 0.520983
vt 0.607160 0.441010
vt 0.636445 0.073152
vt 0.796050 0.073152
vt 0.792940 0.199505
vt 0.633335 0.199505
vt 0.636445 0.000000
vt 0.796050 0.000000
vt 0.630957 0.310578
vt 0.790562 0.323878
vt 0.715893 0.598684
vt 0.591327 0.465578
vt 0.682445 0.651637
vt 0.572452 0.494678
vt 0.651115 0.689659
vt 0.551913 0.523863
vt 0.307311 1.000000
vt 0.203950 0.861544
s 0
f 10/1/1 9/2/1 4/3/1 3/4/1
f 7/5/1 8/6/1 6/7/1 5/8/1
f 1/9/1 2/10/1 8/6/1 7/5/1
f 19/11/1 20/12/1 9/2/1 10/1/1
f 3/4/1 4/3/1 12/13/1 11/14/1
f 11/14/1 12/13/1 14/15/1 13/16/1
f 13/16/1 14/15/1 16/17/1 15/18/1
f 15/18/1 16/17/1 17/19/1 18/20/1
f 5/8/1 6/7/1 20/12/1 19/11/1
