# Blender 4.0.1
# www.blender.org
mtllib Road.mtl
o Plane
v -3.000000 0.000000 0.000000
v 3.000000 0.000000 0.000000
v -3.022806 0.000000 -10.693600
v 2.642262 0.000000 -12.984175
v -3.000000 0.000000 -7.500000
v 3.000000 0.000000 -7.500000
v -3.000000 0.000000 -2.750000
v 3.000000 0.000000 -2.750000
v 3.000000 0.000000 -10.250000
v -3.000000 0.000000 -10.250000
v -3.171486 0.000000 -11.698372
v 1.633106 0.000000 -15.905214
v -3.759269 0.000000 -12.761480
v 0.375713 0.000000 -17.895872
v -4.531384 0.000000 -13.741734
v -0.802090 0.000000 -19.325211
v -11.414438 0.000000 -29.927954
v -15.143730 0.000000 -24.344477
vn -0.0000 1.0000 -0.0000
vt 0.569228 0.342489
vt 0.836537 0.342489
vt 0.824584 0.433848
vt 0.568466 0.357311
vt 0.569228 0.091887
vt 0.836537 0.091887
vt 0.836537 0.250602
vt 0.569228 0.250602
vt 0.569228 0.000000
vt 0.836537 0.000000
vt 0.790864 0.531450
vt 0.563498 0.390884
vt 0.748850 0.597965
vt 0.543859 0.426407
vt 0.709496 0.645724
vt 0.518059 0.459160
vt 0.354899 1.000000
vt 0.163463 0.813436
s 0
f 10/1/1 9/2/1 4/3/1 3/4/1
f 7/5/1 8/6/1 6/7/1 5/8/1
f 1/9/1 2/10/1 8/6/1 7/5/1
f 5/8/1 6/7/1 9/2/1 10/1/1
f 3/4/1 4/3/1 12/11/1 11/12/1
f 11/12/1 12/11/1 14/13/1 13/14/1
f 13/14/1 14/13/1 16/15/1 15/16/1
f 15/16/1 16/15/1 17/17/1 18/18/1
