# Blender 4.0.1
# www.blender.org
mtllib SecondMiddleRoad.mtl
o Plane.010
v 3.498304 0.251535 -15.699570
v 3.023968 0.260100 -16.747395
v 2.215438 0.251535 -15.699540
v 1.741037 0.264382 -16.545897
v 4.813266 0.251535 -15.705580
v 4.154136 0.255810 -17.052193
v 4.040938 0.251535 -13.236232
v 2.904413 0.251535 -13.094790
v 5.148454 0.251535 -13.493655
vn 0.0025 0.9999 0.0101
vn -0.0000 1.0000 -0.0000
vn 0.0023 1.0000 0.0043
vt 0.072305 0.751093
vt 0.405954 0.673552
vt 0.345931 0.974752
vt 0.000087 0.999914
vt 0.094034 0.032005
vt 0.398170 0.000087
vt 0.748310 0.595623
vt 0.658291 0.985695
vt 0.701773 0.000087
s 0
f 3/1/1 1/2/1 2/3/1 4/4/1
f 8/5/2 7/6/2 1/2/2 3/1/2
f 1/2/3 5/7/3 6/8/3 2/3/3
f 7/6/2 9/9/2 5/7/2 1/2/2
